<svg width="888" height="552.12922" xmlns="http://www.w3.org/2000/svg">
 <title>drone_surveillance</title>

 <g>
  <title>background</title>
  <rect fill="none" id="canvas_background" height="402" width="582" y="-1" x="-1"/>
 </g>
 <g>
  <title>Layer 1</title>
  <path id="svg_1" fill="#3f3d56" d="m323.90234,388.250156a3.86767,3.86767 0 0 0 -3.86279,3.86328l0,154.31445a3.86767,3.86767 0 0 0 3.86279,3.86328l26.1958,0a3.86768,3.86768 0 0 0 3.8628,-3.86328l0,-154.31445a3.86768,3.86768 0 0 0 -3.8628,-3.86328l-26.1958,0z"/>
  <path id="svg_2" fill="#3f3d56" d="m541.74121,388.250156a3.86809,3.86809 0 0 0 -3.86328,3.86328l0,154.31445a3.86809,3.86809 0 0 0 3.86328,3.86328l26.19531,0a3.86809,3.86809 0 0 0 3.86328,-3.86328l0,-154.31445a3.86809,3.86809 0 0 0 -3.86328,-3.86328l-26.19531,0z"/>
  <polygon id="svg_3" fill="#3f3d56" points="664.127 265.647 463.273 250.14 623.513 277.462 661.912 270.816 664.127 265.647"/>
  <polygon id="svg_4" fill="#4ecca3" points="624.99 275.031 663.389 268.385 663.766 267.505 665.604 267.647 663.389 272.816 624.99 279.462 464.75 250.14 512.237 255.806 624.99 275.031"/>
  <polygon id="svg_5" fill="#3f3d56" points="209.25100708007812,266.6470031738281 8.395999908447266,251.13999938964844 168.63699340820312,278.4620056152344 207.03599548339844,271.8160095214844 209.25100708007812,266.6470031738281 "/>
  <polygon id="svg_6" fill="#4ecca3" points="166.422 275.031 204.82 268.385 205.198 267.505 207.036 267.647 204.82 272.816 166.422 279.462 6.181 250.14 53.668 255.806 166.422 275.031"/>
  <path id="svg_7" fill="#3f3d56" d="m698.09532,347.136446l-16.984,0.73844l-155.5958,65.6469l-8.90552,7.45823l-28.23038,23.62994l-88.61231,0l-26.68708,-23.62994l-10.1461,-8.9868l-149.25261,-63.3799l-13.29184,-1.47687l44.30614,-21.41463l0.23631,0c10.0427,-9.53323 97.01568,-16.984 202.8335,-16.984s192.79079,7.45079 202.8335,16.984l0.97474,0l46.52145,21.41463z"/>
  <path id="svg_8" fill="#3f3d56" d="m243.47889,326.816516a8.27564,8.27564 0 0 0 0.47852,-2.75769l0,-35.07276a8.30885,8.30885 0 0 0 -8.30884,-8.30883l-3.37366,0a19.93774,19.93774 0 1 0 -28.32556,0l-3.37359,0a8.30881,8.30881 0 0 0 -8.30884,8.30883l0,35.07276a8.26212,8.26212 0 0 0 1.08465,4.09521c-2.50775,0.4397 -5.01556,0.917 -7.52331,1.46857a6.877,6.877 0 0 0 -5.37634,6.72424l0,8.33295a6.88724,6.88724 0 0 0 6.8872,6.88727l78.03288,0l0,-20.67621a177.61335,177.61335 0 0 0 -21.89311,-4.07434z"/>
  <path id="svg_9" fill="#3f3d56" d="m705.27235,328.622606c-2.50775,-0.55157 -5.0155,-1.02893 -7.52325,-1.46857a8.26212,8.26212 0 0 0 1.08465,-4.09521l0,-35.07276a8.30881,8.30881 0 0 0 -8.30884,-8.30883l-3.37359,0a19.93778,19.93778 0 1 0 -28.32563,0l-3.37359,0a8.30881,8.30881 0 0 0 -8.30884,8.30883l0,35.07276a8.27564,8.27564 0 0 0 0.47852,2.75769a177.61335,177.61335 0 0 0 -21.89313,4.07434l0,20.67621l78.03284,0a6.88724,6.88724 0 0 0 6.8872,-6.88727l0,-8.33295a6.877,6.877 0 0 0 -5.37634,-6.72424z"/>
  <polygon id="svg_10" fill="#3f3d56" points="681.85 265.647 882.704 250.14 722.464 277.462 684.065 270.816 681.85 265.647"/>
  <path id="svg_11" fill="#3f3d56" d="m459.6533,437.964036l-31.1597,0a8.78851,8.78851 0 0 0 -8.78853,8.78852l0,6.79128a8.78369,8.78369 0 0 0 5.68218,8.213a8.58909,8.58909 0 0 0 -1.99,5.50911l0,1.94786a8.61086,8.61086 0 0 0 3.69218,7.06972l0,25.92439l33.968,0l0,-25.92437a8.61088,8.61088 0 0 0 3.69218,-7.06972l0,-1.94786a8.58909,8.58909 0 0 0 -1.99,-5.50911a8.78369,8.78369 0 0 0 5.68218,-8.213l0,-6.79125a8.78851,8.78851 0 0 0 -8.78849,-8.78857z"/>
  <path id="svg_12" fill="#4ecca3" d="m412.40771,497.539216a5.239,5.239 0 0 0 -5.23291,5.23242l0,41.917a5.23917,5.23917 0 0 0 5.23291,5.2334l63.33155,0a5.23907,5.23907 0 0 0 5.23242,-5.2334l0,-41.91703a5.23887,5.23887 0 0 0 -5.23242,-5.23242l-63.33155,0.00003z"/>
  <path id="svg_13" fill="#4ecca3" d="m516.61,419.980016l-28.23038,23.62994l-88.61231,0l-26.68708,-23.62994l26.53938,0l1.15935,-5.782a7.50328,7.50328 0 0 1 7.35484,-6.033l74.09461,0a7.50326,7.50326 0 0 1 7.35483,6.033l1.15935,5.782l25.86741,0z"/>
  <circle id="svg_14" fill="#3f3d56" r="20.6762" cy="523.73023" cx="444.07345"/>
  <circle id="svg_15" fill="#e6e6e6" r="11.81497" cy="523.73023" cx="444.07345"/>
  <path id="svg_16" fill="#fff" d="m451.21506,514.333656a11.79947,11.79947 0 0 1 -16.538,16.53825a11.80444,11.80444 0 1 0 16.538,-16.53825z"/>
  <rect id="svg_17" fill="#e6e6e6" height="3.38212" width="530.19637" y="337.43041" x="180.8211"/>
  <polygon id="svg_18" fill="#4ecca3" points="723.941 275.031 685.542 268.385 685.165 267.505 683.327 267.647 685.542 272.816 723.941 279.462 884.181 250.14 836.694 255.806 723.941 275.031"/>
  <polygon id="svg_19" fill="#3f3d56" points="226.97300720214844,266.6470031738281 427.8280029296875,251.13999938964844 267.5870056152344,278.4620056152344 229.18899536132812,271.8160095214844 226.97300720214844,266.6470031738281 "/>
  <polygon id="svg_20" fill="#4ecca3" points="269.803 275.031 231.404 268.385 231.027 267.505 229.189 267.647 231.404 272.816 269.803 279.462 430.043 250.14 382.556 255.806 269.803 275.031"/>
  <rect id="svg_21" fill="#e6e6e6" height="11.81497" width="59.07485" y="414.44175" x="415.64368"/>
 </g>
</svg>